<?xml version="1.0" encoding="UTF-8" standalone="no"?>
<!DOCTYPE svg PUBLIC "-//W3C//DTD SVG 1.1//EN" "http://www.w3.org/Graphics/SVG/1.1/DTD/svg11.dtd">
<svg xmlns="http://www.w3.org/2000/svg" xmlns:xlink="http://www.w3.org/1999/xlink" version="1.1" width="296.198pt" height="296.731pt" viewBox="0 0 296.198 296.731">
<g enable-background="new">
<path transform="matrix(1,0,0,-1,141.931,154.79999)" stroke-width=".3985" stroke-linecap="butt" stroke-miterlimit="10" stroke-linejoin="miter" fill="none" stroke="#d5d6d5" d="M -141.73404 -141.73404 L 141.73404 -141.73404 M -141.73404 -113.38724 L 141.73404 -113.38724 M -141.73404 -85.04042 L 141.73404 -85.04042 M -141.73404 -56.69362 L 141.73404 -56.69362 M -141.73404 -28.3468 L 141.73404 -28.3468 M -141.73404 0 L 141.73404 0 M -141.73404 28.3468 L 141.73404 28.3468 M -141.73404 56.69362 L 141.73404 56.69362 M -141.73404 85.04042 L 141.73404 85.04042 M -141.73404 113.38724 L 141.73404 113.38724 M -141.73404 141.72409 L 141.73404 141.72409 M -141.73404 -141.73404 L -141.73404 141.73404 M -113.38724 -141.73404 L -113.38724 141.73404 M -85.04042 -141.73404 L -85.04042 141.73404 M -56.69362 -141.73404 L -56.69362 141.73404 M -28.3468 -141.73404 L -28.3468 141.73404 M 0 -141.73404 L 0 141.73404 M 28.3468 -141.73404 L 28.3468 141.73404 M 56.69362 -141.73404 L 56.69362 141.73404 M 85.04042 -141.73404 L 85.04042 141.73404 M 113.38724 -141.73404 L 113.38724 141.73404 M 141.72409 -141.73404 L 141.72409 141.73404 M 141.73404 141.73404 "/>
<path transform="matrix(1,0,0,-1,141.931,154.79999)" stroke-width=".3985" stroke-linecap="butt" stroke-miterlimit="10" stroke-linejoin="miter" fill="none" stroke="#000000" d="M -141.27576 0 L 141.27576 0 "/>
<path transform="matrix(-1,-0,0,1,.6552429,154.79999)" stroke-width=".31879" stroke-linecap="round" stroke-linejoin="round" fill="none" stroke="#000000" d="M -1.19551 1.59401 C -1.09587 .99626 0 .09961 .29886 0 C 0 -.09961 -1.09587 -.99626 -1.19551 -1.59401 "/>
<path transform="matrix(1,0,0,-1,283.20677,154.79999)" stroke-width=".31879" stroke-linecap="round" stroke-linejoin="round" fill="none" stroke="#000000" d="M -1.19551 1.59401 C -1.09587 .99626 0 .09961 .29886 0 C 0 -.09961 -1.09587 -.99626 -1.19551 -1.59401 "/>
<symbol id="font_0_1">
<path d="M .305 .31300003 C .311 .33900003 .334 .43100003 .404 .43100003 C .409 .43100003 .433 .43100003 .454 .418 C .426 .41300003 .40600003 .388 .40600003 .36400003 C .40600003 .34800003 .417 .32900004 .444 .32900004 C .46600003 .32900004 .498 .34700004 .498 .38700003 C .498 .43900005 .439 .45300005 .405 .45300005 C .347 .45300005 .312 .40000005 .3 .37700004 C .275 .44300003 .221 .45300005 .19200002 .45300005 C .08800001 .45300005 .031000002 .32400004 .031000002 .29900003 C .031000002 .28900004 .041 .28900004 .043000007 .28900004 C .051000008 .28900004 .054000006 .291 .056 .3 C .09 .40600003 .156 .43100003 .19000001 .43100003 C .209 .43100003 .244 .42200003 .244 .36400003 C .244 .33300004 .22700002 .26600004 .19000001 .126 C .17400001 .064 .13900002 .022000002 .095000009 .022000002 C .08900001 .022000002 .06600001 .022000002 .045 .035 C .07000001 .040000004 .09200001 .061 .09200001 .089 C .09200001 .116000007 .07000001 .124000009 .055000009 .124000009 C .025 .124000009 0 .098000008 0 .06600001 C 0 .020000002 .050000006 0 .094000007 0 C .16000001 0 .19600001 .07000001 .19900002 .076000008 C .21100001 .039 .24700003 0 .307 0 C .41 0 .467 .12900001 .467 .15400002 C .467 .16400002 .458 .16400002 .455 .16400002 C .446 .16400002 .444 .16000001 .442 .15300001 C .409 .046 .341 .022000002 .30900003 .022000002 C .27 .022000002 .254 .054 .254 .08800001 C .254 .11000001 .26 .13200002 .271 .17600002 L .305 .31300003 Z "/>
</symbol>
<use xlink:href="#font_0_1" transform="matrix(9.9626,0,0,-9.9626,287.4719,157.05358)"/>
<path transform="matrix(1,0,0,-1,141.931,154.79999)" stroke-width=".3985" stroke-linecap="butt" stroke-miterlimit="10" stroke-linejoin="miter" fill="none" stroke="#000000" d="M 0 -141.27576 L 0 141.27576 "/>
<path transform="matrix(0,1,1,0,141.931,296.07575)" stroke-width=".31879" stroke-linecap="round" stroke-linejoin="round" fill="none" stroke="#000000" d="M -1.19551 1.59401 C -1.09587 .99626 0 .09961 .29886 0 C 0 -.09961 -1.09587 -.99626 -1.19551 -1.59401 "/>
<path transform="matrix(0,-1,-1,-0,141.931,13.524231)" stroke-width=".31879" stroke-linecap="round" stroke-linejoin="round" fill="none" stroke="#000000" d="M -1.19551 1.59401 C -1.09587 .99626 0 .09961 .29886 0 C 0 -.09961 -1.09587 -.99626 -1.19551 -1.59401 "/>
<symbol id="font_0_2">
<path d="M .45700003 .586 C .461 .6 .461 .602 .461 .609 C .461 .62700006 .447 .63600006 .432 .63600006 C .42200003 .63600006 .40600003 .63 .397 .615 C .395 .61 .387 .579 .38300003 .561 C .37600003 .535 .36900003 .508 .363 .48100005 L .318 .301 C .314 .286 .271 .21600002 .20500002 .21600002 C .15400002 .21600002 .143 .26000003 .143 .29700003 C .143 .34300003 .16000001 .40500004 .194 .49300004 C .21000001 .53400006 .21400002 .545 .21400002 .56500008 C .21400002 .61 .18200001 .6470001 .13200002 .6470001 C .037 .6470001 0 .50200006 0 .49300004 C 0 .48300005 .01 .48300005 .012 .48300005 C .022000002 .48300005 .023 .485 .028000003 .50100007 C .055000009 .595 .095000009 .625 .12900001 .625 C .13700001 .625 .15400002 .625 .15400002 .59300008 C .15400002 .568 .14400001 .54200008 .13700001 .523 C .097 .41700004 .079 .36 .079 .31300003 C .079 .224 .142 .194 .201 .194 C .24000003 .194 .274 .21100001 .30200003 .23900002 C .289 .187 .277 .13800001 .237 .08500001 C .21100001 .051 .17300001 .022 .127 .022 C .113000009 .022 .068 .025000006 .051000008 .06400001 C .067 .06400001 .080000009 .06400001 .094000007 .076000008 C .104 .08500001 .11400001 .098000008 .11400001 .117000009 C .11400001 .148 .087000008 .15200001 .07700001 .15200001 C .054000006 .15200001 .021 .136 .021 .087000008 C .021 .037 .065000008 0 .127 0 C .23 0 .333 .091000009 .361 .20400001 L .45700003 .586 Z "/>
</symbol>
<use xlink:href="#font_0_2" transform="matrix(9.9626,0,0,-9.9626,139.5989,9.653326)"/>
<path transform="matrix(1,0,0,-1,141.931,154.79999)" stroke-width="1.99255" stroke-linecap="butt" stroke-miterlimit="10" stroke-linejoin="miter" fill="none" stroke="#000000" d="M 0 0 L 23.96317 0 "/>
<path transform="matrix(1,0,0,-1,165.89417,154.79999)" d="M 4.38364 0 L -2.63017 3.50691 L 0 0 L -2.63017 -3.50691 "/>
<symbol id="font_1_3">
<path d="M .30200003 .65400007 C .30200003 .68100008 .28100003 .702 .25300003 .702 C .215 .702 .18200001 .66700008 .18200001 .633 C .18200001 .60600009 .202 .58500006 .231 .58500006 C .268 .58500006 .30200003 .62000009 .30200003 .65400007 M .32700003 .156 C .32700003 .17 .312 .17 .303 .17 C .291 .17 .284 .17 .28 .157 C .24900002 .052000006 .198 .036000004 .177 .036000004 C .16700001 .036000004 .161 .039 .161 .058000003 C .161 .08100001 .17 .10300001 .194 .163 L .261 .336 C .266 .349 .26900003 .361 .26900003 .37 C .26900003 .423 .21700001 .46 .155 .46 C .051000004 .46 0 .326 0 .304 C 0 .29 .015000001 .29 .024 .29 C .036000004 .29 .043 .29 .047000003 .303 C .07800001 .408 .12900001 .424 .15 .424 C .16 .424 .16600001 .421 .16600001 .402 C .16600001 .379 .157 .357 .133 .297 L .066 .124000009 C .061 .11100001 .058000003 .09900001 .058000003 .09 C .058000003 .037 .11 0 .172 0 C .27600003 0 .32700003 .134 .32700003 .156 Z "/>
</symbol>
<use xlink:href="#font_1_3" transform="matrix(9.9626,0,0,-9.9626,174.9138,150.56369)"/>
<path transform="matrix(1,0,0,-1,141.931,154.79999)" stroke-width="1.99255" stroke-linecap="butt" stroke-miterlimit="10" stroke-linejoin="miter" fill="none" stroke="#000000" d="M 0 0 L 0 23.96317 "/>
<path transform="matrix(0,-1,-1,-0,141.931,130.83683)" d="M 4.38364 0 L -2.63017 3.50691 L 0 0 L -2.63017 -3.50691 "/>
<symbol id="font_1_4">
<path d="M .46400003 .84800007 C .46400003 .87500008 .444 .896 .41500003 .896 C .37800003 .896 .344 .86100009 .344 .827 C .344 .8000001 .365 .77900007 .393 .77900007 C .43100003 .77900007 .46400003 .81400009 .46400003 .84800007 M .21800001 .156 C .202 .091 .155 .036 .102000009 .036 C .097 .036 .092 .036 .086 .038000004 C .12100001 .060000004 .12100001 .095 .12100001 .098000008 C .12100001 .120000008 .104 .14400001 .071 .14400001 C .036000004 .14400001 0 .114 0 .070999998 C 0 .030000002 .04 0 .102000009 0 C .165 0 .29900003 .031000004 .33 .156 L .42200003 .522 C .425 .53300008 .42700003 .542 .42700003 .556 C .42700003 .62 .363 .65400007 .301 .65400007 C .18200001 .65400007 .114 .51500007 .114 .49800004 C .114 .48400004 .12900001 .48400004 .13800001 .48400004 C .155 .48400004 .156 .485 .163 .5 C .201 .586 .25700004 .61800006 .296 .61800006 C .30600003 .61800006 .32000003 .61600008 .32000003 .58100005 C .32000003 .56200006 .317 .551 .314 .53800007 L .21800001 .156 Z "/>
</symbol>
<use xlink:href="#font_1_4" transform="matrix(9.9626,0,0,-9.9626,132.16452,139.68845)"/>
<path transform="matrix(1,0,0,-1,141.931,154.79999)" stroke-width="1.99255" stroke-linecap="butt" stroke-miterlimit="10" stroke-linejoin="miter" fill="none" stroke="#000000" d="M 0 0 L 109.46667 54.73337 "/>
<path transform="matrix(.89436,-.44717,-.44717,-.89436,251.39768,100.06662)" d="M 4.38364 0 L -2.63017 3.50691 L 0 0 L -2.63017 -3.50691 "/>
<symbol id="font_1_5">
<path d="M .367 .07499999 C .35200004 .06099999 .35200004 .059000017 .34800003 .055000009 C .341 .048000039 .336 .04100001 .336 .030000031 C .336 .013999999 .35 0 .36600004 0 C .37900005 0 .38400004 .006000042 .395 .01700002 C .409 .030000031 .432 .053000034 .47800002 .073000017 C .49500004 .08000004 .51 .08500004 .51 .106000009 C .51 .12400001 .49500004 .13200003 .48700003 .13499999 C .47500006 .14200002 .44900004 .15500003 .43500004 .18600005 C .42900006 .19700003 .423 .21100003 .404 .21100003 C .387 .21100003 .373 .19600004 .373 .18 C .373 .16600001 .391 .13800001 .39300005 .13600004 L .045 .13600004 C .027999998 .13600004 0 .13600004 0 .10500002 C 0 .07499999 .029 .07499999 .045 .07499999 L .367 .07499999 Z "/>
</symbol>
<symbol id="font_1_1">
<path d="M .47000004 .325 C .476 .35 .486 .39000003 .486 .39900003 C .486 .431 .45999999 .44300003 .439 .44300003 C .42000003 .44300003 .40000005 .433 .388 .418 C .37300004 .43400003 .34000004 .46 .282 .46 C .10800001 .46 0 .302 0 .165 C 0 .042000005 .09200001 0 .17500001 0 C .246 0 .29800005 .039 .314 .054000006 C .352 0 .41800005 0 .42900003 0 C .46600003 0 .495 .021000002 .51600006 .057000005 C .541 .097 .554 .15100001 .554 .156 C .554 .17 .53900006 .17 .53000006 .17 C .519 .17 .515 .17 .51 .165 C .508 .163 .508 .16100002 .50200006 .136 C .482 .056 .459 .036000004 .43400003 .036000004 C .42300005 .036000004 .411 .040000004 .411 .07300001 C .411 .09 .41500003 .106000009 .425 .14600002 C .43200005 .17400001 .44200004 .21400002 .44700004 .23600002 L .47000004 .325 M .30400003 .101 C .27500005 .067 .228 .036000004 .18 .036000004 C .118 .036000004 .113000009 .09 .113000009 .112 C .113000009 .164 .147 .287 .163 .326 C .194 .39900003 .24300002 .424 .28400005 .424 C .343 .424 .36700005 .377 .36700005 .366 L .365 .352 L .30400003 .101 Z "/>
</symbol>
<use xlink:href="#font_1_5" transform="matrix(9.9626,0,0,-9.9626,227.14402,96.604167)"/>
<use xlink:href="#font_1_1" transform="matrix(9.9626,0,0,-9.9626,226.20754,101.794689)"/>
<path transform="matrix(1,0,0,-1,141.931,154.79999)" stroke-width="1.99255" stroke-linecap="butt" stroke-miterlimit="10" stroke-linejoin="miter" fill="none" stroke="#000000" d="M 113.38724 56.69362 L 3.09969 -53.59392 "/>
<path transform="matrix(-.7071,.7071,.7071,.7071,145.0307,208.39389)" d="M 4.38364 0 L -2.63017 3.50691 L 0 0 L -2.63017 -3.50691 "/>
<symbol id="font_1_2">
<path d="M .22900002 .66700008 C .23300003 .68100008 .23300003 .683 .23300003 .6840001 C .23300003 .697 .22200002 .702 .21100001 .702 C .207 .702 .20600002 .702 .20400001 .70100006 L .075 .69500008 C .061000006 .69400009 .043000007 .6930001 .043000007 .665 C .043000007 .6470001 .062000008 .6470001 .069000009 .6470001 C .08 .6470001 .098000008 .6470001 .111 .64500007 C .103 .61100009 .09300001 .568 .083000008 .53000006 L .013999999 .254 C 0 .19800002 0 .186 0 .163 C 0 .035 .095 0 .17000002 0 C .351 0 .45400007 .163 .45400007 .295 C .45400007 .418 .36200006 .46 .27900005 .46 C .23100002 .46 .19100002 .441 .17000002 .428 L .22900002 .66700008 M .172 .036000004 C .133 .036000004 .10000001 .057000005 .10000001 .11900001 C .10000001 .15100001 .11 .18800001 .11700001 .21900001 C .127 .257 .14400001 .326 .15100001 .356 C .156 .373 .21300002 .424 .274 .424 C .33600004 .424 .34100003 .37 .34100003 .348 C .34100003 .296 .30700005 .17300001 .291 .134 C .25700004 .053000004 .20100002 .036000004 .172 .036000004 Z "/>
</symbol>
<use xlink:href="#font_1_5" transform="matrix(9.9626,0,0,-9.9626,165.065,208.74518)"/>
<use xlink:href="#font_1_2" transform="matrix(9.9626,0,0,-9.9626,164.76206,216.42568)"/>
<path transform="matrix(1,0,0,-1,141.931,154.79999)" stroke-width="1.99255" stroke-linecap="butt" stroke-miterlimit="10" stroke-linejoin="miter" fill="none" stroke="#000000" d="M 0 0 L 0 -52.30997 "/>
<path transform="matrix(0,1,1,0,141.931,207.10996)" d="M 4.38364 0 L -2.63017 3.50691 L 0 0 L -2.63017 -3.50691 "/>
<path transform="matrix(1,0,0,-1,141.931,154.79999)" stroke-width="0" stroke-linecap="butt" stroke-miterlimit="10" stroke-linejoin="miter" fill="none" stroke="#000000" d="M 0 0 L 0 -26.95203 "/>
<path transform="matrix(0,1,1,0,141.931,181.75202)" d="M 1.39478 0 L -.83687 1.11581 L 0 0 L -.83687 -1.11581 "/>
<use xlink:href="#font_1_5" transform="matrix(9.9626,0,0,-9.9626,114.494,173.38617)"/>
<use xlink:href="#font_1_1" transform="matrix(9.9626,0,0,-9.9626,113.55752,178.57668)"/>
<symbol id="font_2_1">
<path d="M .656 0 C .671 0 .70100006 0 .70100006 .029999987 C .70100006 .061000006 .672 .061000006 .656 .061000006 L .045 .061000006 C .030000002 .061000006 0 .061000006 0 .031000004 C 0 0 .029 0 .045 0 L .656 0 Z "/>
</symbol>
<use xlink:href="#font_2_1" transform="matrix(9.9626,0,0,-9.9626,122.92141,176.3052)"/>
<use xlink:href="#font_1_5" transform="matrix(9.9626,0,0,-9.9626,134.244,170.89517)"/>
<use xlink:href="#font_1_2" transform="matrix(9.9626,0,0,-9.9626,133.94005,178.57668)"/>
</g>
</svg>
