<?xml version="1.0" encoding="UTF-8" standalone="no"?>
<!DOCTYPE svg PUBLIC "-//W3C//DTD SVG 1.1//EN" "http://www.w3.org/Graphics/SVG/1.1/DTD/svg11.dtd">
<svg xmlns="http://www.w3.org/2000/svg" xmlns:xlink="http://www.w3.org/1999/xlink" version="1.1" width="182.812pt" height="183.345pt" viewBox="0 0 182.812 183.345">
<g enable-background="new">
<path transform="matrix(1,0,0,-1,85.239,98.106)" stroke-width=".3985" stroke-linecap="butt" stroke-miterlimit="10" stroke-linejoin="miter" fill="none" stroke="#d5d6d5" d="M -85.04042 -85.04042 L 85.04042 -85.04042 M -85.04042 -56.69362 L 85.04042 -56.69362 M -85.04042 -28.3468 L 85.04042 -28.3468 M -85.04042 0 L 85.04042 0 M -85.04042 28.3468 L 85.04042 28.3468 M -85.04042 56.69362 L 85.04042 56.69362 M -85.04042 85.03047 L 85.04042 85.03047 M -85.04042 -85.04042 L -85.04042 85.04042 M -56.69362 -85.04042 L -56.69362 85.04042 M -28.3468 -85.04042 L -28.3468 85.04042 M 0 -85.04042 L 0 85.04042 M 28.3468 -85.04042 L 28.3468 85.04042 M 56.69362 -85.04042 L 56.69362 85.04042 M 85.03047 -85.04042 L 85.03047 85.04042 M 85.04042 85.04042 "/>
<path transform="matrix(1,0,0,-1,85.239,98.106)" stroke-width=".3985" stroke-linecap="butt" stroke-miterlimit="10" stroke-linejoin="miter" fill="none" stroke="#000000" d="M -84.58214 0 L 84.58214 0 "/>
<path transform="matrix(-1,-0,0,1,.65686038,98.106)" stroke-width=".31879" stroke-linecap="round" stroke-linejoin="round" fill="none" stroke="#000000" d="M -1.19551 1.59401 C -1.09587 .99626 0 .09961 .29886 0 C 0 -.09961 -1.09587 -.99626 -1.19551 -1.59401 "/>
<path transform="matrix(1,0,0,-1,169.82114,98.106)" stroke-width=".31879" stroke-linecap="round" stroke-linejoin="round" fill="none" stroke="#000000" d="M -1.19551 1.59401 C -1.09587 .99626 0 .09961 .29886 0 C 0 -.09961 -1.09587 -.99626 -1.19551 -1.59401 "/>
<text xml:space="preserve" transform="matrix(1 0 -0 1 0 183.345)" font-size="9.9626" font-family="CMMI10" font-style="italic"><tspan y="-83.094" x="173.798">x</tspan></text>
<path transform="matrix(1,0,0,-1,85.239,98.106)" stroke-width=".3985" stroke-linecap="butt" stroke-miterlimit="10" stroke-linejoin="miter" fill="none" stroke="#000000" d="M 0 -84.58214 L 0 84.58214 "/>
<path transform="matrix(0,1,1,0,85.239,182.68814)" stroke-width=".31879" stroke-linecap="round" stroke-linejoin="round" fill="none" stroke="#000000" d="M -1.19551 1.59401 C -1.09587 .99626 0 .09961 .29886 0 C 0 -.09961 -1.09587 -.99626 -1.19551 -1.59401 "/>
<path transform="matrix(0,-1,-1,-0,85.239,13.523865)" stroke-width=".31879" stroke-linecap="round" stroke-linejoin="round" fill="none" stroke="#000000" d="M -1.19551 1.59401 C -1.09587 .99626 0 .09961 .29886 0 C 0 -.09961 -1.09587 -.99626 -1.19551 -1.59401 "/>
<text xml:space="preserve" transform="matrix(1 0 -0 1 0 183.345)" font-size="9.9626" font-family="CMMI10" font-style="italic"><tspan y="-175.735" x="82.618">y</tspan></text>
<path transform="matrix(1,0,0,-1,85.239,98.106)" stroke-width="1.99255" stroke-linecap="butt" stroke-miterlimit="10" stroke-linejoin="miter" fill="none" stroke="#000000" d="M 0 0 L 23.96317 0 "/>
<path transform="matrix(1,0,0,-1,109.20216,98.106)" d="M 4.38364 0 L -2.63017 3.50691 L 0 0 L -2.63017 -3.50691 "/>
<text xml:space="preserve" transform="matrix(1 0 -0 1 -.0000076293949 183.345)" font-size="9.9626" font-family="CMMIB10" font-weight="bold" font-style="italic"><tspan y="-89.555" x="117.902">i</tspan></text>
<path transform="matrix(1,0,0,-1,85.239,98.106)" stroke-width="1.99255" stroke-linecap="butt" stroke-miterlimit="10" stroke-linejoin="miter" fill="none" stroke="#000000" d="M 0 0 L 0 23.96317 "/>
<path transform="matrix(0,-1,-1,-0,85.239,74.14284)" d="M 4.38364 0 L -2.63017 3.50691 L 0 0 L -2.63017 -3.50691 "/>
<text xml:space="preserve" transform="matrix(1 0 -0 1 0 183.345)" font-size="9.9626" font-family="CMMIB10" font-weight="bold" font-style="italic"><tspan y="-102.362" x="75.611">j</tspan></text>
</g>
</svg>
